HIERARCHY
ROOT SpineBase
{
  OFFSET 0.000000 0.000000 0.000000
  CHANNELS 6 Xposition Yposition Zposition Zrotation Xrotation Yrotation
  JOINT SpineMid
  {
    OFFSET 0.000000 31.328607 0.000000
    CHANNELS 3 Zrotation Xrotation Yrotation
    JOINT SpineShoulder
    {
      OFFSET -0.174593 23.304580 -0.813334
      CHANNELS 3 Zrotation Xrotation Yrotation
      JOINT Neck
      {
        OFFSET -0.106546 7.742283 -0.610657
        CHANNELS 3 Zrotation Xrotation Yrotation
        JOINT Head
        {
          OFFSET -5.318015 12.998759 3.046972
          CHANNELS 3 Zrotation Xrotation Yrotation
          End Site
          {
            OFFSET 0 0 0
          }
        }
      }
      JOINT ShoulderLeft
      {
        OFFSET -9.450669 -2.828496 16.315176
        CHANNELS 3 Zrotation Xrotation Yrotation
        JOINT ElbowLeft
        {
          OFFSET -4.026995 -25.465975 0.152274
          CHANNELS 3 Zrotation Xrotation Yrotation
          JOINT WristLeft
          {
            OFFSET -15.323983 -16.256570 -16.187376
            CHANNELS 3 Zrotation Xrotation Yrotation
            JOINT HandLeft
            {
              OFFSET -0.991268 -3.374334 -1.927298
              CHANNELS 3 Zrotation Xrotation Yrotation
              JOINT HandTipLeft
              {
                OFFSET -0.592733 -4.996382 -6.491867
                CHANNELS 3 Zrotation Xrotation Yrotation
                End Site
                {
                  OFFSET 0 0 0
                }
              }
              JOINT ThumbLeft
              {
                OFFSET -4.259593 -3.755196 2.751456
                CHANNELS 3 Zrotation Xrotation Yrotation
                End Site
                {
                  OFFSET 0 0 0
                }
              }
            }
          }
        }
      }
      JOINT ShoulderRight
      {
        OFFSET 7.986941 -2.163288 -13.553708
        CHANNELS 3 Zrotation Xrotation Yrotation
        JOINT ElbowRight
        {
          OFFSET 5.707643 -20.448169 -9.286132
          CHANNELS 3 Zrotation Xrotation Yrotation
          JOINT WristRight
          {
            OFFSET -17.982811 -18.718467 -2.840260
            CHANNELS 3 Zrotation Xrotation Yrotation
            JOINT HandRight
            {
              OFFSET -8.283298 -6.958619 -0.407589
              CHANNELS 3 Zrotation Xrotation Yrotation
              JOINT HandTipRight
              {
                OFFSET -4.191247 -6.761193 -2.243357
                CHANNELS 3 Zrotation Xrotation Yrotation
                End Site
                {
                  OFFSET 0 0 0
                }
              }
              JOINT ThumbRight
              {
                OFFSET -4.634456 5.448137 -2.148544
                CHANNELS 3 Zrotation Xrotation Yrotation
                End Site
                {
                  OFFSET 0 0 0
                }
              }
            }
          }
        }
      }
    }
  }
  JOINT HipLeft
  {
    OFFSET -5.307766 -0.977106 2.473163
    CHANNELS 3 Zrotation Xrotation Yrotation
    JOINT KneeLeft
    {
      OFFSET -4.673808 -31.484553 3.688172
      CHANNELS 3 Zrotation Xrotation Yrotation
      JOINT AnkleLeft
      {
        OFFSET -6.262382 -30.575726 1.061477
        CHANNELS 3 Zrotation Xrotation Yrotation
        JOINT FootLeft
        {
          OFFSET -7.495312 -2.101599 -7.561202
          CHANNELS 3 Zrotation Xrotation Yrotation
          End Site
          {
            OFFSET 0 0 0
          }
        }
      }
    }
  }
  JOINT HipRight
  {
    OFFSET 4.145438 3.152093 -9.379947
    CHANNELS 3 Zrotation Xrotation Yrotation
    JOINT KneeRight
    {
      OFFSET 3.860721 -27.213237 -3.132141
      CHANNELS 3 Zrotation Xrotation Yrotation
      JOINT AnkleRight
      {
        OFFSET 2.988688 -34.410587 11.400488
        CHANNELS 3 Zrotation Xrotation Yrotation
        JOINT FootRight
        {
          OFFSET -7.764327 -2.120518 -7.530688
          CHANNELS 3 Zrotation Xrotation Yrotation
          End Site
          {
            OFFSET 0 0 0
          }
        }
      }
    }
  }
}
MOTION
Frames: 14
Frame Time: 0.033333
45.302727 66.257609 325.800497 7.172192 -8.086901 32.590659 -0.374656 0.304397 -31.880150 -0.218239 -0.058361 0.240854 1.581292 27.442295 3.500824 0.000000 0.000000 0.000000 -172.885849 32.486950 103.967272 63.865530 -3.122981 21.214511 -28.973631 7.613400 23.243822 -10.271828 -0.361228 19.173125 0.000000 0.000000 0.000000 0.000000 0.000000 0.000000 -107.699712 13.548656 97.833407 -54.567822 13.211772 -78.008419 50.248161 23.243286 -25.606008 -25.973361 3.778764 23.374227 0.000000 0.000000 0.000000 0.000000 0.000000 0.000000 -15.611319 19.216411 -30.249700 26.657131 -4.481493 3.748699 1.146296 -7.165501 -0.669072 0.000000 0.000000 0.000000 7.166784 29.559061 -31.770277 8.963407 -19.767302 1.583009 -3.062987 -2.713326 -7.607645 0.000000 0.000000 0.000000
44.067060 64.635837 326.346179 8.932858 -7.823681 23.218402 -0.706441 0.409846 -22.332954 -0.433029 -0.209880 0.310640 -2.637218 29.735845 5.902339 0.000000 0.000000 0.000000 155.852900 35.466300 178.202742 26.830936 -41.300572 -16.405980 -17.235663 27.654201 31.112318 -17.492501 -15.410156 7.024166 0.000000 0.000000 0.000000 0.000000 0.000000 0.000000 -115.670102 18.151722 110.079282 -62.097345 22.544305 -86.736928 64.168382 27.091383 -34.900246 -33.998801 0.706521 23.429053 0.000000 0.000000 0.000000 0.000000 0.000000 0.000000 -25.147815 14.686672 -19.546844 29.277519 -0.737384 2.269813 4.514799 -10.005001 -1.395736 0.000000 0.000000 0.000000 2.775047 36.589161 -21.227290 9.812310 -25.521899 2.267521 -3.520306 -3.843059 -8.030177 0.000000 0.000000 0.000000
41.841121 63.839266 326.711244 9.310884 -6.857307 15.581961 -1.056828 0.539935 -14.734934 -0.635065 -0.248170 0.312733 -5.065774 29.277164 7.503878 0.000000 0.000000 0.000000 144.146405 35.325121 -150.108841 10.764640 -43.279704 -40.948511 -1.771510 41.259754 37.352444 -56.399612 -5.657317 -14.361922 0.000000 0.000000 0.000000 0.000000 0.000000 0.000000 -121.029480 27.245608 121.007676 -71.980559 33.117729 -90.856978 72.595932 23.719445 -39.357272 -41.994497 3.040366 24.631984 0.000000 0.000000 0.000000 0.000000 0.000000 0.000000 -30.726965 6.845004 -12.651925 30.364725 4.406238 0.077965 4.160741 -9.334939 -0.224656 0.000000 0.000000 0.000000 -0.415861 37.617284 -12.922496 9.326709 -27.845858 3.263987 -5.044151 -4.205908 -7.079254 0.000000 0.000000 0.000000
39.615502 63.271428 326.880527 8.477546 -5.215021 7.938212 -1.036209 0.608835 -7.309131 -0.513667 -0.259888 0.284866 -4.445521 28.230811 7.765704 0.000000 0.000000 0.000000 139.573758 36.499962 -137.268915 6.708004 -38.694403 -52.595302 5.634973 42.456747 45.452207 -52.944306 2.542298 -18.829873 0.000000 0.000000 0.000000 0.000000 0.000000 0.000000 -123.704587 35.065255 127.268511 -79.188937 36.985498 -92.679097 75.178510 21.265111 -40.945116 -47.435603 5.604340 25.362344 0.000000 0.000000 0.000000 0.000000 0.000000 0.000000 -34.133244 -2.995047 -7.471062 32.260268 9.795997 -2.277302 1.652202 -6.665473 1.082903 0.000000 0.000000 0.000000 -4.893632 35.712955 -3.868738 12.092804 -28.175389 5.715046 -8.390311 -3.975402 -5.478899 0.000000 0.000000 0.000000
36.664702 63.531973 327.192568 6.960535 -3.448907 8.019800 -0.648627 0.475757 -7.614310 -0.165039 -0.598174 0.269508 -7.076147 22.757315 7.819902 0.000000 0.000000 0.000000 137.679465 38.082620 -131.937803 10.512567 -40.012501 -51.248055 5.623233 40.021508 46.354194 -40.135801 -0.058195 -18.442305 0.000000 0.000000 0.000000 0.000000 0.000000 0.000000 -125.265296 37.516740 130.757810 -79.708048 38.518966 -95.503709 73.866285 18.377608 -39.045458 -45.753976 5.656951 24.644586 0.000000 0.000000 0.000000 0.000000 0.000000 0.000000 -33.495164 -6.788124 -8.942014 32.207571 12.764011 -3.552448 -2.879877 -2.673285 1.506578 0.000000 0.000000 0.000000 -2.200684 30.782933 -5.149837 15.089354 -25.296949 8.598671 -13.131070 -3.113819 -4.054859 0.000000 0.000000 0.000000
33.515218 64.570826 327.374425 5.117215 -1.793172 22.236551 -0.134829 0.401982 -22.008139 -0.222201 -0.217824 0.194351 -7.711940 16.481195 6.886103 0.000000 0.000000 0.000000 138.846323 43.189215 -135.727379 25.922021 -43.742505 -33.302971 -1.187684 33.885895 39.379990 -21.519267 -6.125730 -12.201663 0.000000 0.000000 0.000000 0.000000 0.000000 0.000000 -119.479874 33.133576 122.598077 -76.620172 35.829674 -94.213172 77.590234 21.555052 -43.180496 -48.227307 3.145244 24.345757 0.000000 0.000000 0.000000 0.000000 0.000000 0.000000 -31.840796 -0.788620 -22.040129 31.541652 13.186003 -3.679369 -4.734261 -2.415710 3.375273 0.000000 0.000000 0.000000 4.954811 23.521022 -21.160014 19.578840 -19.280281 10.898754 -18.406051 -2.719485 -3.045602 0.000000 0.000000 0.000000
30.434879 65.689512 327.366931 3.233865 -1.457156 31.998401 0.186995 0.286490 -31.862777 -0.274014 0.053085 0.115742 -7.755518 13.169080 6.440325 0.000000 0.000000 0.000000 144.515142 48.774967 -148.693192 49.754351 -41.774307 -7.184064 -0.432263 37.643479 30.221839 -7.138757 -20.605900 -3.174506 0.000000 0.000000 0.000000 0.000000 0.000000 0.000000 -110.804804 21.784479 106.968826 -66.884323 25.092980 -89.048745 77.972851 25.247380 -44.855606 -47.903284 -1.217265 23.090818 0.000000 0.000000 0.000000 0.000000 0.000000 0.000000 -28.472645 2.348341 -31.146549 31.566314 13.657587 -4.200135 -6.749003 -2.897919 3.501028 0.000000 0.000000 0.000000 7.232414 18.125554 -31.063650 24.331042 -13.561056 12.348330 -22.999556 -2.739540 -4.091529 0.000000 0.000000 0.000000
27.455949 66.968903 327.335435 2.604475 -0.541203 37.684877 -0.022556 0.440459 -37.599419 -0.510644 0.327535 0.060561 -7.630507 9.909620 5.828950 0.000000 0.000000 0.000000 152.792288 57.219169 -166.596651 72.048100 -29.864865 11.243695 0.169870 35.697355 24.545337 11.945773 -35.673031 14.821505 0.000000 0.000000 0.000000 0.000000 0.000000 0.000000 -105.352277 9.968662 91.974156 -52.636463 13.765882 -81.572111 67.805811 29.011198 -37.984980 -40.374195 -0.351041 23.650790 0.000000 0.000000 0.000000 0.000000 0.000000 0.000000 -25.893946 3.105795 -36.834638 30.956255 13.318699 -4.348522 -11.372431 -0.035401 1.810182 0.000000 0.000000 0.000000 5.345459 15.092222 -36.352244 29.243466 -8.902831 13.019872 -26.728802 -2.851597 -5.341431 0.000000 0.000000 0.000000
25.011125 68.154940 327.305077 2.220714 0.769147 42.826610 0.126053 0.596667 -42.778143 -0.315973 0.607405 0.063481 -6.778387 6.939686 4.889989 0.000000 0.000000 0.000000 170.453596 67.415535 163.869881 86.087897 -18.321962 19.707395 4.941208 31.221163 20.409303 16.783371 -37.547485 14.256688 0.000000 0.000000 0.000000 0.000000 0.000000 0.000000 -102.684415 -0.806717 76.483640 -39.087297 3.102064 -71.037119 49.816275 32.411642 -27.823165 -32.400085 1.239495 25.084130 0.000000 0.000000 0.000000 0.000000 0.000000 0.000000 -21.480346 3.336231 -42.270876 28.735495 11.149603 -3.544539 -11.444955 -2.554888 3.810294 0.000000 0.000000 0.000000 2.797055 13.200625 -41.146221 33.213818 -5.051062 12.953289 -29.335725 -3.342500 -6.039667 0.000000 0.000000 0.000000
22.835161 68.608390 327.393544 2.074777 0.706541 44.555670 0.339892 0.448248 -44.500961 -0.208877 0.835609 0.075697 -5.675894 6.364814 4.303729 0.000000 0.000000 0.000000 -159.589476 69.850453 122.927537 97.887028 -11.479937 25.972093 13.192624 -0.627836 43.017094 5.191496 -16.342002 -25.917904 0.000000 0.000000 0.000000 0.000000 0.000000 0.000000 -101.219001 -9.181754 63.595416 -25.379850 -4.088745 -59.277006 26.160869 28.027524 -14.537003 -24.692233 5.160819 27.149090 0.000000 0.000000 0.000000 0.000000 0.000000 0.000000 -18.468846 3.005806 -44.035544 27.539118 9.961643 -3.199333 -13.070769 -2.274762 3.048782 0.000000 0.000000 0.000000 0.817358 14.494707 -42.412252 37.714975 -2.005943 13.224379 -31.634592 -4.606095 -8.533622 0.000000 0.000000 0.000000
21.453725 68.528561 327.912452 3.043581 0.001329 43.442783 0.703229 0.402245 -43.345649 -0.322068 0.768012 0.112225 -4.872645 6.072149 3.318811 0.000000 0.000000 0.000000 -139.712590 66.721373 94.351250 109.629249 -8.316782 31.706333 12.935292 -16.753009 51.252993 6.273469 -4.153257 -40.282702 0.000000 0.000000 0.000000 0.000000 0.000000 0.000000 -99.995051 -14.712212 53.071220 -13.913182 -7.666205 -48.121946 7.283870 14.103855 -5.678888 -22.947072 7.144552 28.571900 0.000000 0.000000 0.000000 0.000000 0.000000 0.000000 -15.543519 3.439280 -42.797617 25.841420 7.996777 -2.388959 -12.213232 -3.572952 1.668068 0.000000 0.000000 0.000000 -1.218705 19.129200 -40.446139 41.387957 -1.788560 13.904433 -31.997381 -6.066991 -10.871049 0.000000 0.000000 0.000000
20.813579 68.027505 328.897898 3.383483 0.819741 46.803753 0.837906 0.371801 -46.712746 -0.267660 0.748143 0.135763 -1.806659 5.067248 2.231445 0.000000 0.000000 0.000000 -124.260442 64.750937 74.395273 112.598194 -10.748850 35.098573 14.840315 -7.512426 32.998601 -7.907351 -9.866072 -17.926149 0.000000 0.000000 0.000000 0.000000 0.000000 0.000000 -98.283001 -16.179982 46.600163 -6.046882 -12.693784 -43.461202 -8.115898 2.119580 -0.161416 -24.498749 11.381031 32.167958 0.000000 0.000000 0.000000 0.000000 0.000000 0.000000 -14.765216 5.078808 -46.325544 27.008496 7.215127 -1.951180 -10.720136 -7.449610 3.278569 0.000000 0.000000 0.000000 1.662377 23.268707 -43.778800 42.071184 -4.298020 15.638769 -31.774789 -8.406540 -10.397494 0.000000 0.000000 0.000000
20.080066 67.614369 329.703167 3.996094 1.029451 47.594680 0.888442 0.314890 -47.493464 -0.214123 0.655939 0.168852 1.838472 5.675497 1.297936 0.000000 0.000000 0.000000 -117.648900 62.045876 64.216684 109.573090 -15.176439 38.071708 5.161783 -14.990881 32.024460 -7.587588 -5.479735 -6.497653 0.000000 0.000000 0.000000 0.000000 0.000000 0.000000 -94.453165 -15.785353 41.884801 0.140767 -15.154352 -38.426959 -13.479375 -13.729819 2.227369 -22.996393 14.854303 30.036619 0.000000 0.000000 0.000000 0.000000 0.000000 0.000000 -14.043413 5.158176 -47.102330 26.218843 7.505881 -2.052273 -6.606353 -12.554848 5.295575 0.000000 0.000000 0.000000 4.986113 25.840389 -45.129644 41.553539 -6.400415 17.332632 -32.169702 -10.092155 -10.235840 0.000000 0.000000 0.000000
20.089933 66.863623 330.506794 5.021937 1.174549 46.416729 1.042310 0.072137 -46.283829 0.029126 0.469989 0.248801 5.305148 7.809156 0.462645 0.000000 0.000000 0.000000 -120.661269 58.478949 61.586693 102.460824 -20.504824 41.463169 -66.361812 -4.969894 29.622867 19.694455 -33.669982 12.174545 0.000000 0.000000 0.000000 0.000000 0.000000 0.000000 -92.839833 -14.945576 39.823348 5.603403 -18.752742 -36.108750 -15.564470 -22.251099 5.200601 -23.770697 18.348836 28.960682 0.000000 0.000000 0.000000 0.000000 0.000000 0.000000 -14.299530 5.571994 -45.884798 25.711428 7.594492 -2.010348 2.139153 -20.272603 8.452034 0.000000 0.000000 0.000000 7.659594 29.790313 -44.601945 41.802961 -9.773166 19.702732 -32.571551 -11.302114 -10.146244 0.000000 0.000000 0.000000
